<?xml version="1.0" standalone="no"?>
<!DOCTYPE svg PUBLIC "-//W3C//DTD SVG 20010904//EN"
 "http://www.w3.org/TR/2001/REC-SVG-20010904/DTD/svg10.dtd">
<svg version="1.0" xmlns="http://www.w3.org/2000/svg"
 width="312.000000pt" height="241.000000pt" viewBox="0 0 312.000000 241.000000"
 preserveAspectRatio="xMidYMid meet">

<g transform="translate(0.000000,241.000000) scale(0.100000,-0.100000)"
fill="#000000" stroke="none">
<path d="M1103 1988 c-36 -35 -100 -98 -142 -142 -74 -76 -82 -81 -303 -192
-124 -62 -229 -118 -233 -123 -9 -15 13 -51 30 -51 8 0 98 26 200 59 181 57
186 58 243 47 l59 -11 -146 -252 c-129 -223 -149 -253 -171 -253 -14 0 -43 -9
-66 -19 -111 -50 -125 -194 -26 -269 29 -22 46 -27 91 -27 69 0 115 29 142 89
23 51 24 88 3 132 -9 18 -14 37 -12 42 9 24 294 512 298 511 3 0 52 -57 110
-126 71 -85 104 -132 103 -147 -15 -131 5 -204 67 -240 18 -11 85 -32 149 -48
102 -24 136 -28 276 -28 139 0 166 3 199 19 l37 20 167 -62 c141 -53 169 -66
180 -89 23 -48 69 -78 119 -78 38 0 50 5 78 33 38 38 50 74 40 114 -3 14 -21
41 -40 60 -36 36 -80 43 -141 21 -29 -10 -46 -6 -191 48 l-158 59 3 43 c3 38
-1 47 -33 79 -20 20 -32 39 -27 42 5 3 130 81 279 174 l270 167 66 0 66 0 91
-125 c69 -94 98 -125 114 -125 27 0 46 18 46 42 0 29 -157 335 -175 342 -9 3
-112 6 -228 6 -227 0 -326 -11 -497 -55 -170 -45 -294 -30 -537 64 -71 27
-141 53 -157 57 -24 6 -27 10 -22 33 3 14 9 54 12 88 l7 61 -71 36 c-39 20
-79 36 -88 36 -8 0 -45 -28 -81 -62z"/>
<path d="M592 1408 c-6 -6 -12 -17 -12 -24 0 -7 -14 -15 -31 -19 -23 -5 -34
-3 -43 10 -24 34 -113 -6 -101 -45 8 -26 -38 -54 -65 -40 -40 21 -103 -40 -79
-77 16 -26 -15 -76 -41 -68 -38 12 -79 -76 -46 -100 29 -22 17 -71 -20 -86
-20 -7 -24 -16 -24 -48 0 -22 6 -44 15 -51 8 -7 15 -9 15 -4 0 5 7 0 15 -10
20 -26 19 -56 -2 -71 -15 -11 -15 -18 -5 -54 12 -40 19 -45 53 -42 9 1 24 -10
34 -25 15 -23 16 -31 5 -47 -10 -17 -7 -24 23 -54 30 -30 37 -33 54 -23 26 17
76 -13 68 -40 -12 -38 76 -79 100 -46 21 29 60 20 81 -19 8 -14 23 -21 52 -23
36 -3 43 0 53 22 15 33 65 45 83 21 24 -34 113 6 101 45 -8 27 42 57 68 40 17
-10 24 -7 54 23 30 30 34 37 24 56 -15 27 13 74 38 66 20 -6 35 4 50 32 16 30
14 60 -5 71 -12 7 -14 16 -7 43 5 19 14 34 21 34 22 0 33 23 30 61 -2 31 -7
40 -24 42 -28 4 -42 72 -19 85 19 10 19 40 -1 78 -12 25 -20 30 -39 25 -31 -8
-64 38 -46 66 13 21 -1 58 -22 58 -7 0 -31 -35 -55 -76 -39 -69 -42 -77 -28
-93 8 -9 22 -34 31 -54 71 -169 6 -349 -157 -434 -47 -25 -63 -28 -148 -28
-84 0 -101 3 -147 28 -69 36 -120 88 -152 156 -22 48 -26 70 -26 146 0 79 4
97 28 143 59 113 154 174 277 180 l75 4 33 58 32 58 -28 7 c-15 3 -32 16 -37
28 -8 17 -20 23 -50 25 -23 2 -46 -3 -53 -10z"/>
<path d="M2422 1305 c-13 -29 -46 -33 -73 -9 -15 14 -20 14 -54 0 -29 -12 -36
-20 -33 -38 5 -32 -37 -61 -63 -45 -16 10 -24 7 -49 -19 -30 -29 -30 -31 -16
-59 10 -19 31 -34 62 -46 l47 -18 30 25 c65 55 106 69 202 69 103 0 143 -16
208 -82 57 -56 79 -107 85 -189 6 -93 -15 -158 -73 -222 -140 -155 -394 -120
-490 68 -12 25 -26 64 -30 87 -6 40 -10 43 -58 61 -96 36 -96 36 -103 8 -9
-37 -1 -60 23 -71 27 -11 36 -54 17 -76 -18 -20 -18 -39 2 -68 10 -14 23 -21
35 -18 27 7 53 -36 38 -64 -9 -18 -7 -26 19 -51 25 -26 33 -28 51 -19 30 16
70 -10 64 -42 -4 -17 2 -26 22 -35 35 -16 62 -15 72 2 12 20 57 9 68 -17 8
-17 19 -22 50 -22 33 0 41 4 43 21 4 28 61 39 78 16 22 -30 104 8 91 42 -4 9
5 21 19 31 20 13 28 14 40 4 24 -20 69 20 69 62 1 48 13 69 41 69 18 0 29 9
41 35 16 33 15 36 -1 54 -23 25 -15 66 14 74 27 7 29 84 3 94 -36 13 -45 57
-17 78 14 10 15 17 5 48 -10 31 -17 37 -40 37 -32 0 -53 34 -44 69 9 33 -33
73 -68 66 -38 -9 -70 13 -63 42 5 18 -1 25 -32 38 -33 14 -39 14 -54 0 -29
-26 -70 -17 -83 18 -5 12 -17 17 -45 17 -32 0 -41 -5 -50 -25z"/>
</g>
</svg>
