<?xml version="1.0" standalone="no"?>
<!DOCTYPE svg PUBLIC "-//W3C//DTD SVG 20010904//EN"
 "http://www.w3.org/TR/2001/REC-SVG-20010904/DTD/svg10.dtd">
<svg version="1.0" xmlns="http://www.w3.org/2000/svg"
 width="245.000000pt" height="214.000000pt" viewBox="0 0 245.000000 214.000000"
 preserveAspectRatio="xMidYMid meet">

<g transform="translate(0.000000,214.000000) scale(0.100000,-0.100000)"
fill="#000000" stroke="none">
<path d="M660 1456 c-116 -43 -230 -117 -255 -167 -20 -37 -19 -123 1 -165 13
-26 24 -35 53 -40 222 -37 355 -146 420 -344 59 -180 115 -206 480 -219 119
-4 219 -6 224 -4 4 2 7 48 7 101 0 151 32 231 131 331 87 86 155 112 339 131
108 10 135 23 128 60 -9 46 -54 48 -839 38 l-286 -3 -38 -33 c-30 -27 -43 -32
-64 -27 -74 18 -165 102 -190 174 -6 19 -11 55 -11 81 0 36 -6 53 -25 74 -27
29 -27 29 -75 12z"/>
<path d="M327 971 c-89 -29 -147 -77 -189 -156 -48 -91 -61 -209 -33 -303 18
-60 111 -167 179 -207 85 -50 226 -51 325 -3 63 31 137 107 169 176 23 49 27
70 27 152 0 82 -4 103 -26 151 -37 79 -90 133 -166 171 -84 41 -196 49 -286
19z m207 -83 c64 -19 147 -108 170 -182 42 -134 -14 -251 -154 -321 -100 -50
-208 -27 -293 64 -81 87 -99 200 -47 303 31 63 66 94 136 123 65 27 126 31
188 13z"/>
<path d="M1920 981 c-157 -52 -272 -223 -257 -382 11 -119 97 -243 206 -296
50 -25 67 -28 156 -28 87 0 107 3 156 26 75 35 134 96 171 176 29 62 30 69 26
166 -6 124 -20 159 -93 236 -75 79 -132 103 -250 107 -49 2 -101 0 -115 -5z
m226 -107 c43 -20 100 -84 125 -138 20 -45 25 -131 9 -184 -17 -62 -80 -130
-150 -165 -84 -42 -126 -41 -212 1 -76 37 -120 84 -143 151 -39 115 10 257
112 322 43 26 55 29 136 29 61 0 100 -5 123 -16z"/>
</g>
</svg>
