<?xml version="1.0" standalone="no"?>
<!DOCTYPE svg PUBLIC "-//W3C//DTD SVG 20010904//EN"
 "http://www.w3.org/TR/2001/REC-SVG-20010904/DTD/svg10.dtd">
<svg version="1.0" xmlns="http://www.w3.org/2000/svg"
 width="537.000000pt" height="280.000000pt" viewBox="0 0 537.000000 280.000000"
 preserveAspectRatio="xMidYMid meet">

<g transform="translate(0.000000,280.000000) scale(0.100000,-0.100000)"
fill="#000000" stroke="none">
<path d="M1950 1975 l-335 -335 -355 -60 c-922 -157 -1045 -181 -1061 -213
-16 -29 -24 -355 -11 -446 6 -42 18 -81 27 -90 12 -12 40 -17 118 -19 132 -3
146 4 164 82 20 90 69 173 148 251 85 85 156 121 266 136 171 23 305 -20 427
-139 77 -74 111 -134 142 -243 11 -40 24 -77 28 -81 5 -5 539 -7 1188 -6 1332
3 1234 -3 1245 80 17 118 158 301 272 353 117 54 321 55 430 1 66 -32 189
-144 224 -203 15 -26 39 -87 54 -137 l27 -91 66 -3 c89 -4 139 11 157 45 18
37 26 599 9 661 -13 52 -31 67 -547 479 l-392 313 -978 0 -978 0 -335 -335z
m1222 167 c18 -18 18 -536 0 -569 -17 -32 -96 -35 -752 -31 -650 3 -632 1
-638 73 l-3 39 256 254 256 253 434 -3 c341 -2 437 -6 447 -16z m1075 -175
c104 -106 204 -212 221 -236 43 -60 42 -96 -4 -150 l-36 -42 -549 3 c-433 2
-551 6 -561 16 -10 10 -13 78 -13 298 0 242 2 286 15 294 9 6 166 10 376 10
l361 0 190 -193z"/>
<path d="M873 1135 c-102 -31 -166 -88 -212 -185 -23 -48 -26 -68 -26 -160 0
-95 3 -111 28 -162 34 -68 106 -137 185 -174 52 -24 63 -26 153 -22 160 8 240
61 312 207 96 196 -5 436 -207 495 -65 19 -175 20 -233 1z"/>
<path d="M4313 1136 c-60 -19 -104 -49 -156 -105 -68 -73 -79 -106 -80 -242 0
-109 1 -120 26 -162 39 -66 108 -130 173 -161 227 -107 467 23 515 278 26 143
-57 302 -193 373 -45 23 -68 27 -148 30 -61 2 -110 -2 -137 -11z"/>
</g>
</svg>
