<?xml version="1.0" standalone="no"?>
<!DOCTYPE svg PUBLIC "-//W3C//DTD SVG 20010904//EN"
 "http://www.w3.org/TR/2001/REC-SVG-20010904/DTD/svg10.dtd">
<svg version="1.0" xmlns="http://www.w3.org/2000/svg"
 width="745.000000pt" height="210.000000pt" viewBox="0 0 745.000000 210.000000"
 preserveAspectRatio="xMidYMid meet">

<g transform="translate(0.000000,210.000000) scale(0.100000,-0.100000)"
fill="#000000" stroke="none">
<path d="M2170 2053 c-31 -4 -75 -44 -350 -318 l-315 -313 -300 -52 c-659
-113 -1008 -179 -1023 -195 -21 -21 -31 -408 -12 -476 14 -49 41 -59 164 -59
l103 0 12 54 c21 93 75 192 144 261 69 69 118 98 204 120 164 43 321 -2 445
-126 74 -73 107 -132 135 -242 l17 -67 1137 0 1137 0 27 88 c47 153 117 245
233 305 95 49 147 60 251 55 117 -5 198 -43 292 -137 73 -73 114 -143 139
-241 l17 -65 74 -3 c154 -6 150 -14 152 362 1 160 -1 303 -6 318 -5 20 -125
122 -447 383 l-439 355 -878 -2 c-483 0 -894 -3 -913 -5z m786 -153 c17 -7 24
-20 30 -55 11 -75 0 -483 -13 -496 -30 -30 -1193 -37 -1271 -9 -42 16 -54 45
-35 85 9 17 119 135 247 264 l231 233 394 -7 c217 -4 405 -11 417 -15z m1021
-173 c194 -197 250 -269 239 -310 -3 -12 -21 -38 -41 -57 l-36 -35 -502 0
c-391 0 -507 3 -524 13 -23 13 -23 13 -23 292 l0 280 313 3 c171 1 328 3 348
5 34 2 44 -6 226 -191z"/>
<path d="M5538 1861 c-130 -7 -149 -16 -169 -80 -8 -24 -13 -177 -16 -448 l-5
-413 308 0 308 0 45 38 c77 64 110 83 179 108 157 56 324 18 464 -105 l46 -41
313 0 312 0 -6 408 c-7 443 -11 479 -60 516 -28 21 -33 21 -815 22 -433 1
-839 -2 -904 -5z"/>
<path d="M837 950 c-99 -25 -186 -90 -224 -168 -25 -52 -28 -67 -28 -162 0
-123 17 -170 87 -246 96 -105 270 -130 407 -58 82 42 112 80 155 186 31 80 33
135 6 213 -41 121 -100 185 -201 220 -53 19 -155 26 -202 15z"/>
<path d="M4059 947 c-154 -44 -251 -172 -251 -332 0 -132 74 -255 187 -311 52
-25 62 -26 164 -22 94 4 114 8 153 31 56 33 107 89 139 152 21 43 24 64 24
150 0 89 -3 106 -28 156 -32 66 -100 132 -163 160 -57 26 -165 33 -225 16z"/>
<path d="M6243 946 c-67 -22 -127 -61 -176 -116 -53 -59 -70 -114 -70 -229 0
-64 5 -87 29 -134 34 -70 97 -130 172 -165 46 -21 71 -26 132 -25 123 1 223
52 285 146 115 175 46 418 -144 508 -57 27 -168 35 -228 15z"/>
<path d="M5445 771 c-74 -6 -81 -8 -92 -32 -23 -47 -36 -51 -193 -60 -83 -4
-155 -11 -160 -14 -34 -21 36 -25 429 -25 l429 0 6 31 c3 17 6 49 6 70 l0 39
-172 -2 c-95 -1 -209 -4 -253 -7z"/>
<path d="M6801 771 c-10 -6 -11 -20 -6 -52 16 -96 -2 -89 228 -89 l203 0 37
75 37 75 -243 0 c-133 0 -248 -4 -256 -9z"/>
</g>
</svg>
