<?xml version="1.0" standalone="no"?>
<!DOCTYPE svg PUBLIC "-//W3C//DTD SVG 20010904//EN"
 "http://www.w3.org/TR/2001/REC-SVG-20010904/DTD/svg10.dtd">
<svg version="1.0" xmlns="http://www.w3.org/2000/svg"
 width="533.000000pt" height="241.000000pt" viewBox="0 0 533.000000 241.000000"
 preserveAspectRatio="xMidYMid meet">

<g transform="translate(0.000000,241.000000) scale(0.100000,-0.100000)"
fill="#000000" stroke="none">
<path d="M1440 1570 l0 -590 1825 0 1825 0 0 590 0 590 -1825 0 -1825 0 0
-590z"/>
<path d="M850 1839 c-63 -4 -179 -13 -258 -19 -143 -13 -143 -13 -166 -44 -22
-29 -88 -189 -186 -451 l-41 -110 7 -308 7 -308 36 3 c34 3 37 6 57 63 63 184
168 279 337 305 130 20 270 -24 351 -110 49 -53 67 -82 113 -190 l31 -75 164
-7 c90 -4 435 -7 767 -5 l604 2 16 60 c9 33 33 90 52 126 l35 67 -50 6 c-28 3
-334 6 -681 7 -618 1 -795 6 -812 22 -8 8 -20 449 -22 810 l-1 167 -122 -1
c-68 -1 -175 -5 -238 -10z m94 -220 c5 -66 5 -166 0 -230 l-9 -114 -75 -12
c-41 -6 -177 -22 -301 -34 -215 -21 -228 -22 -253 -6 -16 11 -26 27 -26 42 0
55 151 422 181 441 23 14 229 32 354 30 l120 -1 9 -116z"/>
<path d="M628 841 c-66 -14 -136 -70 -171 -136 -25 -49 -34 -171 -18 -233 22
-81 117 -161 218 -182 130 -28 276 58 321 189 18 52 14 150 -7 197 -25 55 -85
121 -132 145 -42 21 -154 32 -211 20z"/>
<path d="M3003 831 c-100 -34 -153 -91 -179 -191 -31 -123 5 -221 112 -302 61
-47 128 -63 202 -48 126 23 206 97 237 217 26 100 -4 193 -87 268 -80 72 -181
92 -285 56z"/>
<path d="M3422 828 c44 -69 69 -119 84 -174 16 -59 18 -62 53 -68 20 -3 84 -6
142 -6 l106 0 12 56 c7 32 30 90 51 130 30 58 35 74 23 78 -8 3 -121 6 -250 6
l-235 0 14 -22z"/>
<path d="M4130 830 c-115 -42 -172 -121 -179 -248 -4 -93 14 -144 76 -206 62
-63 113 -88 182 -89 77 -2 139 18 197 62 144 109 147 326 5 435 -88 66 -181
82 -281 46z"/>
<path d="M4558 823 c31 -44 69 -124 82 -173 18 -68 25 -73 94 -65 143 15 332
63 348 89 4 6 8 48 8 94 l0 82 -276 0 -275 0 19 -27z"/>
</g>
</svg>
