<?xml version="1.0" standalone="no"?>
<!DOCTYPE svg PUBLIC "-//W3C//DTD SVG 20010904//EN"
 "http://www.w3.org/TR/2001/REC-SVG-20010904/DTD/svg10.dtd">
<svg version="1.0" xmlns="http://www.w3.org/2000/svg"
 width="419.000000pt" height="219.000000pt" viewBox="0 0 419.000000 219.000000"
 preserveAspectRatio="xMidYMid meet">

<g transform="translate(0.000000,219.000000) scale(0.100000,-0.100000)"
fill="#000000" stroke="none">
<path d="M1380 1280 l0 -590 1260 0 1260 0 0 590 0 590 -1260 0 -1260 0 0
-590z"/>
<path d="M895 1549 c-294 -16 -461 -31 -493 -44 -39 -17 -48 -36 -168 -348
l-84 -218 0 -294 c0 -161 4 -305 9 -318 13 -35 42 -43 61 -17 8 11 30 58 48
104 18 46 48 101 67 123 93 109 273 171 398 138 153 -40 266 -149 319 -306 12
-35 26 -67 32 -71 6 -4 353 -8 772 -8 l760 0 23 73 c13 39 36 95 52 124 23 41
25 52 14 57 -8 3 -352 8 -764 12 -413 4 -756 11 -763 15 -10 7 -14 112 -19
496 -3 268 -7 489 -8 491 -2 3 -96 0 -256 -9z m-14 -129 c4 -14 7 -111 8 -216
1 -241 9 -228 -149 -248 -189 -24 -361 -38 -435 -34 -68 3 -70 4 -73 31 -2 16
6 61 18 100 27 90 116 318 133 340 19 25 259 56 417 53 70 -1 75 -2 81 -26z"/>
<path d="M3350 556 c0 -2 19 -35 42 -72 23 -38 49 -96 59 -129 l16 -60 99 2
c75 1 121 8 189 28 148 43 140 35 143 143 l3 92 -276 0 c-151 0 -275 -2 -275
-4z"/>
<path d="M527 526 c-99 -49 -147 -120 -155 -227 -9 -124 46 -232 141 -278 35
-17 62 -21 142 -21 86 0 103 3 140 25 68 39 127 130 139 215 9 60 -22 162 -64
213 -55 65 -111 91 -209 94 -75 3 -92 0 -134 -21z"/>
<path d="M2937 536 c-111 -41 -178 -143 -179 -272 0 -93 47 -172 139 -233 44
-29 52 -31 142 -31 117 0 165 20 221 91 53 68 73 125 68 196 -7 103 -63 184
-161 235 -53 27 -175 35 -230 14z"/>
</g>
</svg>
