<?xml version="1.0" standalone="no"?>
<!DOCTYPE svg PUBLIC "-//W3C//DTD SVG 20010904//EN"
 "http://www.w3.org/TR/2001/REC-SVG-20010904/DTD/svg10.dtd">
<svg version="1.0" xmlns="http://www.w3.org/2000/svg"
 width="709.000000pt" height="252.000000pt" viewBox="0 0 709.000000 252.000000"
 preserveAspectRatio="xMidYMid meet">

<g transform="translate(0.000000,252.000000) scale(0.100000,-0.100000)"
fill="#000000" stroke="none">
<path d="M1327 2213 c-4 -3 -7 -269 -7 -590 l0 -583 1260 0 1260 0 0 590 0
590 -1253 0 c-690 0 -1257 -3 -1260 -7z"/>
<path d="M4250 1630 l0 -590 1345 0 1345 0 0 590 0 590 -1345 0 -1345 0 0
-590z"/>
<path d="M910 1903 c-159 -9 -496 -34 -536 -40 -33 -4 -50 -13 -64 -32 -20
-30 -70 -151 -161 -394 l-59 -158 0 -287 c0 -158 3 -297 6 -308 6 -23 41 -44
61 -37 7 3 20 30 29 61 31 109 90 190 180 252 115 80 285 93 401 31 112 -60
196 -168 242 -313 l13 -38 767 0 767 0 23 73 c13 39 36 96 52 124 16 29 29 54
29 56 0 2 -334 7 -741 11 -408 4 -754 10 -770 13 -15 3 -31 13 -35 22 -4 9
-10 230 -14 491 -4 261 -8 476 -9 478 -1 2 -98 0 -181 -5z m-90 -120 c7 -7 12
-383 5 -420 -3 -17 -13 -34 -21 -37 -23 -9 -316 -44 -462 -55 -141 -11 -172
-5 -172 34 0 56 126 405 159 438 21 22 100 36 266 46 120 8 213 5 225 -6z"/>
<path d="M510 891 c-121 -37 -187 -117 -197 -240 -18 -220 159 -360 376 -295
60 17 136 87 167 152 25 52 21 167 -7 233 -26 61 -93 122 -156 143 -48 17
-140 20 -183 7z"/>
<path d="M2853 871 c-101 -49 -153 -138 -153 -263 1 -96 68 -196 166 -244 48
-23 63 -26 127 -22 109 7 192 58 241 148 74 135 26 296 -111 377 -37 22 -62
27 -127 30 -74 4 -87 1 -143 -26z"/>
<path d="M3300 896 c0 -2 16 -30 35 -62 20 -32 45 -90 56 -128 l21 -69 96 6
c86 6 226 36 305 66 27 10 27 12 27 101 l0 90 -270 0 c-148 0 -270 -2 -270 -4z"/>
<path d="M4070 815 l0 -85 135 0 136 0 17 31 c9 17 31 55 49 85 l32 54 -185 0
-184 0 0 -85z"/>
<path d="M4641 883 c-94 -34 -181 -161 -181 -262 0 -54 36 -142 77 -190 18
-22 58 -52 88 -67 49 -24 64 -26 133 -22 164 9 272 117 272 271 0 115 -54 213
-144 259 -55 29 -182 34 -245 11z"/>
<path d="M5070 896 c0 -2 16 -33 35 -70 19 -37 35 -74 35 -82 0 -12 55 -14
360 -14 284 0 360 3 360 13 0 7 18 43 40 81 22 37 40 70 40 72 0 2 -196 4
-435 4 -239 0 -435 -2 -435 -4z"/>
<path d="M6170 891 c-110 -34 -201 -151 -203 -261 -1 -63 31 -145 78 -198 127
-144 361 -116 463 56 23 41 27 58 27 127 0 67 -5 89 -28 137 -47 96 -137 149
-250 147 -34 0 -73 -4 -87 -8z"/>
<path d="M6580 893 c0 -4 13 -34 30 -68 16 -33 31 -68 34 -77 5 -16 21 -18
151 -18 l145 0 0 85 0 85 -180 0 c-99 0 -180 -3 -180 -7z"/>
</g>
</svg>
