<?xml version="1.0" standalone="no"?>
<!DOCTYPE svg PUBLIC "-//W3C//DTD SVG 20010904//EN"
 "http://www.w3.org/TR/2001/REC-SVG-20010904/DTD/svg10.dtd">
<svg version="1.0" xmlns="http://www.w3.org/2000/svg"
 width="808.000000pt" height="240.000000pt" viewBox="0 0 808.000000 240.000000"
 preserveAspectRatio="xMidYMid meet">

<g transform="translate(0.000000,240.000000) scale(0.100000,-0.100000)"
fill="#000000" stroke="none">
<path d="M1300 1500 l0 -590 1178 0 c648 0 1470 3 1825 7 l647 6 0 584 0 583
-1825 0 -1825 0 0 -590z"/>
<path d="M5302 1511 c2 -319 7 -583 11 -588 5 -4 609 -9 1343 -11 l1334 -4 0
591 0 591 -1345 0 -1346 0 3 -579z"/>
<path d="M840 1773 c-147 -8 -469 -34 -502 -39 -28 -5 -42 -15 -56 -38 -18
-30 -98 -229 -182 -451 l-42 -110 7 -300 c5 -210 10 -302 18 -307 24 -16 52
-3 69 32 9 19 33 70 52 112 42 88 104 151 194 195 48 23 72 28 157 31 83 3
109 0 155 -17 120 -45 217 -154 261 -291 l23 -70 772 0 772 0 12 49 c6 28 29
83 50 124 l38 74 -732 8 c-402 4 -749 10 -771 14 -34 5 -41 11 -46 36 -4 17
-7 174 -8 350 -1 176 -4 384 -8 463 l-6 142 -86 -2 c-47 -1 -111 -3 -141 -5z
m-44 -116 c11 -11 10 -435 -1 -446 -25 -25 -583 -86 -622 -68 -47 21 -42 55
48 279 84 213 79 204 146 219 32 6 92 15 133 20 83 8 286 6 296 -4z"/>
<path d="M5760 769 c-142 -16 -232 -118 -233 -264 -1 -115 58 -213 160 -265
66 -34 178 -35 240 -2 178 94 222 299 94 444 -59 68 -154 99 -261 87z"/>
<path d="M7261 768 c-177 -27 -273 -190 -214 -364 23 -67 110 -154 177 -177
108 -37 220 -6 300 83 98 109 102 236 11 361 -60 80 -157 115 -274 97z"/>
<path d="M471 759 c-113 -33 -181 -132 -181 -263 0 -117 51 -203 150 -254 59
-31 71 -34 130 -30 119 9 218 74 260 170 28 66 25 180 -8 243 -28 55 -101 121
-148 134 -47 13 -156 13 -203 0z"/>
<path d="M2845 752 c-70 -23 -129 -85 -150 -156 -37 -126 -15 -228 65 -300
122 -110 277 -112 394 -5 123 112 127 270 10 399 -53 59 -106 80 -195 79 -41
0 -96 -8 -124 -17z"/>
<path d="M3280 766 c0 -3 15 -31 34 -63 32 -55 46 -93 60 -155 l6 -28 145 0
144 0 12 43 c8 33 49 127 87 200 2 4 -107 7 -242 7 -135 0 -246 -2 -246 -4z"/>
<path d="M3987 756 c-113 -41 -169 -123 -175 -256 -3 -67 -1 -81 25 -130 54
-102 178 -169 287 -156 75 8 154 52 197 110 60 79 75 167 43 259 -20 58 -96
144 -149 168 -49 22 -171 25 -228 5z"/>
<path d="M4454 687 c24 -45 47 -102 51 -126 l7 -44 109 6 c113 7 163 16 267
49 l62 20 0 89 0 89 -270 0 -269 0 43 -83z"/>
<path d="M5120 701 c0 -106 -7 -101 139 -101 69 0 131 4 137 8 5 4 29 42 52
85 l43 77 -186 0 -185 0 0 -69z"/>
<path d="M6140 741 c11 -17 32 -55 46 -85 l25 -56 347 0 347 0 43 79 c23 44
42 82 42 85 0 3 -196 6 -436 6 l-435 0 21 -29z"/>
<path d="M7630 765 c0 -2 11 -20 24 -40 14 -20 32 -56 42 -80 l17 -45 138 0
139 0 0 85 0 85 -180 0 c-99 0 -180 -2 -180 -5z"/>
</g>
</svg>
