<?xml version="1.0" standalone="no"?>
<!DOCTYPE svg PUBLIC "-//W3C//DTD SVG 20010904//EN"
 "http://www.w3.org/TR/2001/REC-SVG-20010904/DTD/svg10.dtd">
<svg version="1.0" xmlns="http://www.w3.org/2000/svg"
 width="312.000000pt" height="241.000000pt" viewBox="0 0 312.000000 241.000000"
 preserveAspectRatio="xMidYMid meet">

<g transform="translate(0.000000,241.000000) scale(0.100000,-0.100000)"
fill="#000000" stroke="none">
<path d="M1732 2083 c-45 -15 -116 -85 -141 -137 -10 -23 -69 -190 -130 -372
-61 -182 -131 -387 -156 -454 -25 -68 -45 -129 -45 -135 0 -7 24 -15 60 -18
107 -12 200 -77 251 -177 18 -35 23 -62 24 -120 0 -41 -3 -87 -8 -102 l-7 -28
320 0 320 0 -6 53 c-19 161 104 298 265 296 77 -1 113 -12 175 -56 68 -48 100
-117 101 -215 l0 -78 42 0 c34 0 46 5 67 31 l26 31 0 304 c0 364 -2 371 -95
376 -22 1 -291 -19 -367 -27 l-48 -6 0 338 c0 307 -2 342 -19 379 -21 47 -59
87 -102 109 -38 20 -473 27 -527 8z m485 -128 c38 -26 43 -75 43 -402 l0 -313
-25 0 -25 0 0 153 c0 106 -4 157 -12 165 -19 19 -86 15 -96 -5 -6 -10 -15 -73
-22 -140 l-13 -123 -101 0 c-114 0 -126 -6 -126 -58 0 -19 -9 -45 -20 -59 -17
-22 -20 -41 -20 -119 l0 -94 -105 0 -105 0 0 109 0 109 62 91 c60 89 62 91 84
76 29 -19 54 -10 54 20 0 32 -155 143 -179 128 -27 -17 -25 -50 3 -65 l24 -13
-42 -60 c-31 -45 -49 -61 -69 -63 -15 -2 -27 0 -27 4 0 11 188 561 206 602 7
17 28 41 46 52 30 18 51 20 238 20 168 0 210 -3 227 -15z"/>
<path d="M972 2058 c-9 -9 -12 -106 -12 -375 l0 -363 -48 0 c-26 0 -53 -5 -60
-12 -9 -9 -12 -94 -12 -320 0 -240 -3 -308 -12 -308 -58 0 -526 -55 -536 -63
-7 -6 -12 -24 -10 -41 l3 -31 352 -3 352 -2 -6 83 c-4 65 -2 95 11 135 23 67
98 150 165 182 l51 23 0 542 c0 407 -3 544 -12 553 -8 8 -48 12 -113 12 -65 0
-105 -4 -113 -12z"/>
<path d="M1210 905 c-62 -19 -128 -78 -156 -139 -74 -160 32 -348 206 -363 80
-8 140 11 196 60 119 104 125 267 14 378 -72 72 -162 94 -260 64z m144 -150
c13 -9 32 -33 42 -53 15 -32 15 -41 3 -76 -30 -86 -129 -111 -191 -48 -99 99
29 253 146 177z"/>
<path d="M2383 819 c-85 -42 -127 -118 -121 -215 12 -187 239 -272 376 -141
50 48 65 84 66 158 1 56 -3 72 -29 114 -59 95 -192 134 -292 84z m154 -145
c21 -21 24 -32 19 -62 -13 -85 -116 -96 -146 -16 -29 76 68 136 127 78z"/>
</g>
</svg>
