<?xml version="1.0" standalone="no"?>
<!DOCTYPE svg PUBLIC "-//W3C//DTD SVG 20010904//EN"
 "http://www.w3.org/TR/2001/REC-SVG-20010904/DTD/svg10.dtd">
<svg version="1.0" xmlns="http://www.w3.org/2000/svg"
 width="312.000000pt" height="241.000000pt" viewBox="0 0 312.000000 241.000000"
 preserveAspectRatio="xMidYMid meet">

<g transform="translate(0.000000,241.000000) scale(0.100000,-0.100000)"
fill="#000000" stroke="none">
<path d="M1449 2033 c-55 -34 -59 -53 -59 -271 l0 -200 -127 -6 c-71 -4 -162
-9 -203 -12 -223 -16 -501 -76 -595 -128 l-60 -33 2 -74 c1 -41 8 -118 15
-172 l13 -98 61 48 c188 151 420 145 597 -17 69 -63 124 -167 135 -257 l7 -58
258 -3 257 -2 1 122 c1 198 13 263 70 364 35 62 122 149 185 186 165 94 420
73 553 -47 21 -19 43 -35 48 -35 5 0 29 21 53 46 l45 46 -49 43 c-90 80 -249
145 -353 145 -24 0 -43 1 -43 3 0 1 -3 43 -6 92 -3 50 -9 130 -14 180 -8 85
-9 91 -44 122 l-36 33 -342 0 c-299 0 -346 -3 -369 -17z m411 -296 l0 -194
-50 -42 c-93 -79 -164 -186 -201 -306 -11 -35 -24 -67 -30 -70 -5 -4 -23 -4
-39 0 l-30 7 0 399 0 399 175 0 175 0 0 -193z m259 115 c1 -43 6 -104 10 -135
l8 -57 -83 0 c-76 0 -82 1 -88 23 -8 30 -8 232 1 240 3 4 38 7 78 7 l71 0 3
-78z"/>
<path d="M2250 1365 c0 -32 -31 -34 -51 -4 -14 20 -14 20 -64 2 -44 -17 -50
-22 -47 -46 3 -33 -29 -55 -48 -32 -17 21 -26 19 -66 -12 -34 -28 -42 -51 -25
-69 6 -5 5 -16 -4 -27 -11 -16 -17 -17 -35 -7 -25 13 -26 12 -61 -54 -21 -38
-19 -47 13 -58 4 -2 5 -13 2 -25 -5 -17 -14 -23 -34 -23 -26 0 -29 -4 -39 -52
-12 -53 -6 -67 27 -68 6 0 12 -11 12 -25 0 -18 -5 -25 -19 -25 -27 0 -29 -7
-18 -67 8 -49 11 -53 37 -53 36 0 47 -33 18 -52 -20 -13 -20 -14 3 -61 22 -45
26 -48 55 -42 44 8 64 -17 38 -46 -18 -20 -18 -21 21 -54 45 -38 57 -42 75
-20 19 23 52 1 44 -30 -5 -22 -1 -27 41 -45 59 -25 64 -25 75 4 6 18 14 22 33
19 19 -4 23 -10 19 -29 -4 -23 -2 -24 57 -24 58 0 61 1 61 24 0 35 44 42 59 9
13 -28 17 -28 75 -3 48 20 52 25 36 50 -15 24 29 43 52 23 16 -14 20 -14 40 0
13 8 33 25 46 37 22 21 22 23 6 41 -23 26 -3 50 35 43 25 -5 31 -1 56 42 l28
47 -22 16 c-29 22 -18 51 19 51 26 0 29 4 36 45 8 55 1 75 -26 75 -15 0 -20 7
-20 25 0 18 5 25 20 25 27 0 34 20 26 75 -7 41 -10 45 -36 45 -34 0 -53 37
-26 52 21 12 20 25 -6 76 -24 44 -36 50 -56 30 -9 -10 -16 -8 -29 5 -13 13
-14 20 -5 29 19 19 14 36 -20 68 -37 33 -63 38 -72 15 -10 -27 -47 1 -44 32 3
24 -3 29 -47 46 -50 18 -50 18 -64 -2 -18 -28 -49 -27 -53 2 -3 20 -9 22 -65
25 -62 3 -63 2 -63 -23z m170 -266 c95 -43 150 -129 150 -234 -1 -144 -111
-255 -254 -255 -219 0 -339 256 -198 421 72 84 202 113 302 68z"/>
<path d="M740 1105 c0 -31 -26 -34 -35 -4 -4 13 -12 18 -22 15 -8 -3 -26 -9
-40 -12 -20 -5 -24 -12 -20 -30 5 -29 -19 -55 -29 -30 -9 23 -37 20 -63 -8
-19 -20 -21 -28 -12 -44 16 -31 14 -34 -18 -27 -23 5 -31 1 -45 -19 -20 -31
-21 -55 -1 -62 27 -11 17 -34 -15 -34 -25 0 -30 -4 -36 -34 -7 -41 0 -56 27
-56 10 0 19 -7 19 -15 0 -9 -9 -15 -25 -15 -27 0 -29 -8 -19 -59 6 -26 11 -31
35 -31 32 0 38 -16 12 -35 -14 -11 -15 -16 -3 -44 16 -39 24 -45 49 -31 23 12
40 -5 22 -23 -18 -18 -13 -34 20 -57 27 -20 32 -21 47 -7 24 20 45 11 32 -13
-8 -16 -6 -22 12 -34 13 -7 33 -17 45 -21 18 -5 24 -1 29 20 8 32 28 27 32 -8
3 -25 7 -27 47 -27 40 0 44 2 47 27 4 33 24 41 31 13 3 -13 13 -20 29 -20 36
0 62 23 56 48 -7 26 11 34 34 15 15 -13 20 -12 47 8 33 24 38 38 20 56 -18 18
-1 35 22 23 25 -14 33 -8 49 31 12 28 11 33 -3 44 -26 19 -20 35 13 35 26 0
30 4 32 30 0 17 1 36 2 43 1 6 -9 13 -21 15 -31 5 -29 28 3 36 21 6 25 11 20
29 -3 12 -6 30 -6 40 0 11 -8 17 -24 17 -33 0 -43 18 -20 35 18 13 18 15 1 50
-16 33 -20 36 -47 30 -23 -5 -30 -3 -30 9 0 9 5 16 10 16 18 0 11 26 -13 48
-27 25 -55 29 -63 8 -10 -26 -31 -7 -26 23 3 24 0 29 -21 35 -14 3 -32 9 -40
12 -10 3 -18 -2 -22 -15 -9 -30 -35 -27 -35 4 0 23 -4 25 -45 25 -41 0 -45 -2
-45 -25z m107 -242 c47 -22 79 -86 69 -138 -9 -44 -59 -100 -99 -111 -81 -20
-167 46 -167 129 0 105 100 166 197 120z"/>
</g>
</svg>
